<svg width="154" height="103" viewBox="0 0 154 103" fill="none" xmlns="http://www.w3.org/2000/svg">
<g clip-path="url(#clip0_8793_3416)">
<path fill-rule="evenodd" clip-rule="evenodd" d="M64.069 27.1051H62.0322L63.0814 26.0579L64.069 27.1051ZM53.3291 27.1051H50.4899L51.9095 25.6882L53.3291 27.1051ZM51.2305 19.4663C51.6626 18.2343 52.2181 17.0022 52.8354 15.8934L54.255 17.3102L51.6626 19.8976L51.2305 19.4663ZM55.0574 12.5668C55.8598 11.5812 56.6622 10.7187 57.5881 9.8563L59.6249 11.8892L56.9708 14.5381L55.0574 12.5668ZM60.7977 7.45379C61.9087 6.77616 63.0814 6.16013 64.2542 5.6673L65.0566 6.46814L62.4025 9.11707L60.7977 7.45379ZM72.4017 5.23608V8.13142L70.9203 6.65295L72.4017 5.23608ZM72.4017 16.8174V19.0351L71.2907 17.9263L72.4017 16.8174ZM68.1428 9.48668L65.4887 12.1356L68.2045 14.8461L70.8586 12.1972L68.1428 9.48668ZM68.4514 20.6984L65.7973 23.3473L68.5131 26.0579L71.1672 23.4089L68.4514 20.6984ZM62.7111 14.9077L60.057 17.5567L62.7728 20.2672L65.4269 17.6183L62.7111 14.9077ZM57.2794 20.3288L54.6871 22.9161L57.4029 25.6266L59.9953 23.0393L57.2794 20.3288Z" fill="#05A7F2"/>
<path fill-rule="evenodd" clip-rule="evenodd" d="M69.6859 27.105H67.5256L68.6366 25.9961L69.6859 27.105ZM58.8843 27.105H55.9216L57.4029 25.6265L58.8843 27.105ZM50.1813 23.9632C50.3047 22.8544 50.5516 21.7455 50.8602 20.6367L51.6626 19.8359L54.6871 22.8544L51.9095 25.6265L50.1813 23.9632ZM66.7849 4.80476C67.3404 4.61995 67.9576 4.49674 68.5749 4.37354L70.9204 6.71444L68.1428 9.48657L65.1183 6.46803L66.7849 4.80476ZM72.4017 10.7186V13.7372L70.8586 12.1971L72.4017 10.7186ZM72.4017 22.2384V24.5793L71.229 23.4088L72.4017 22.2384ZM62.8346 20.2671L60.057 23.0392L63.0815 26.0577L65.859 23.2856L62.8346 20.2671ZM68.2045 14.846L65.427 17.6182L68.4514 20.6367L71.229 17.8646L68.2045 14.846ZM57.0326 14.4764L54.255 17.2485L57.2795 20.2671L60.057 17.4949L57.0326 14.4764ZM62.4642 9.05535L59.6867 11.8275L62.7111 14.846L65.4887 12.0739L62.4642 9.05535Z" fill="#05A7F2"/>
<path fill-rule="evenodd" clip-rule="evenodd" d="M72.4017 27.1051H69.6858L68.5748 25.9962L71.2289 23.3473L72.4017 24.5177V27.1051ZM62.0321 27.1051H58.8842L57.4029 25.6266L59.9952 23.0393L63.0197 26.0578L62.0321 27.1051ZM50.4898 27.1051H49.9343C49.9343 26.0578 49.996 25.0106 50.1195 23.9633L51.8478 25.6882L50.4898 27.1051ZM68.5748 4.3736C69.8093 4.12719 71.1055 3.94238 72.4017 3.94238V5.29765L70.9203 6.77611L68.5748 4.3736ZM72.4017 13.7372V16.7558L71.2906 17.8646L68.2662 14.8461L70.9203 12.1972L72.4017 13.7372ZM65.0566 6.4681L62.4025 9.11702L65.4269 12.1356L68.081 9.48664L65.0566 6.4681ZM59.6866 11.8892L57.0325 14.5381L60.057 17.5566L62.7111 14.9077L59.6866 11.8892ZM65.4269 17.6182L62.7728 20.2671L65.7972 23.2857L68.4514 20.6368L65.4269 17.6182ZM54.255 17.3102L51.6626 19.8975L54.687 22.9161L57.2794 20.3287L54.255 17.3102Z" fill="#008BCC"/>
<path d="M97.8935 27.8445C97.8935 34.5592 95.1776 40.5963 90.7953 45.0317C86.4129 49.4055 80.3023 52.116 73.5744 52.116C66.8466 52.116 60.7977 49.4055 56.3536 45.0317C51.9712 40.6579 49.2554 34.5592 49.2554 27.8445V27.1052H49.9961V27.8445C49.9961 40.8427 60.5508 51.3768 73.5744 51.3768C86.5981 51.3768 97.1528 40.8427 97.1528 27.8445V27.1052H97.8935V27.8445Z" fill="#008BCC"/>
<path d="M49.1936 26.8587C49.2553 20.5136 51.786 14.7229 55.9215 10.4723C60.1187 6.16014 65.9207 3.38801 72.3399 3.1416H73.1423V3.94244H72.4016C59.9952 4.31206 50.1195 14.4149 49.9343 26.8587H49.1936Z" fill="#008BCC"/>
<path d="M0 74.8473H8.02405C8.57956 74.8473 9.07335 74.9705 9.50541 75.1553C9.9992 75.3401 10.3695 75.6482 10.7399 76.0178C11.1102 76.3874 11.3571 76.757 11.604 77.2498C11.7892 77.7427 11.9126 78.2355 11.9126 78.7283C11.9126 79.714 11.604 80.5764 10.9251 81.3156C11.2337 81.6236 11.4806 82.0549 11.6657 82.4861C11.8509 82.9173 11.9126 83.4101 11.9126 83.9029C11.9126 84.4574 11.7892 84.9502 11.604 85.3814C11.4188 85.8742 11.1102 86.2439 10.7399 86.6135C10.3695 86.9831 9.9992 87.2295 9.50541 87.4759C9.01162 87.6607 8.51784 87.7839 8.02405 87.7839H0V74.8473ZM130.792 87.7223L134.248 83.1021L137.705 87.7223H140.915L135.853 80.946L140.483 74.7857H137.273L134.248 78.7899L131.224 74.7857H128.014L132.582 80.946L127.521 87.7223H130.792ZM115.423 81.3156C115.423 80.4532 115.608 79.5907 115.917 78.7899C116.225 77.9891 116.719 77.3114 117.275 76.757C117.83 76.2026 118.571 75.7098 119.311 75.4018C120.114 75.0937 120.916 74.9089 121.842 74.9089C122.706 74.9089 123.57 75.0937 124.373 75.4018C125.175 75.7098 125.854 76.2026 126.471 76.757C127.089 77.3114 127.521 78.0507 127.891 78.7899C128.2 79.5907 128.385 80.3916 128.385 81.3156C128.385 82.2397 128.2 83.0405 127.891 83.8413C127.582 84.6422 127.089 85.3198 126.471 85.8742C125.854 86.4903 125.175 86.9215 124.373 87.2911C123.57 87.5991 122.768 87.7839 121.842 87.7839C120.916 87.7839 120.114 87.5991 119.311 87.2911C118.509 86.9831 117.83 86.4903 117.275 85.8742C116.719 85.2582 116.225 84.5806 115.917 83.8413C115.608 83.0405 115.423 82.1781 115.423 81.3156ZM118.015 81.3156C118.015 81.8701 118.139 82.3629 118.324 82.8557C118.509 83.3485 118.818 83.7181 119.188 84.0878C119.558 84.4574 119.929 84.7038 120.422 84.9502C120.916 85.135 121.41 85.2582 121.966 85.2582C122.521 85.2582 123.015 85.135 123.509 84.9502C124.002 84.7654 124.434 84.4574 124.743 84.0878C125.113 83.7181 125.36 83.3485 125.607 82.8557C125.792 82.3629 125.916 81.8701 125.916 81.3156C125.916 80.7612 125.792 80.2684 125.607 79.7756C125.422 79.2827 125.113 78.9131 124.743 78.5435C124.373 78.1739 123.941 77.9275 123.509 77.6811C123.015 77.4962 122.521 77.373 121.966 77.373C121.41 77.373 120.916 77.4962 120.422 77.6811C119.929 77.8659 119.558 78.1739 119.188 78.5435C118.818 78.9131 118.571 79.2827 118.324 79.7756C118.077 80.2684 118.015 80.7612 118.015 81.3156ZM104.127 90.3096H101.597V89.3856V81.3772V81.3156V81.254V81.1308C101.597 80.33 101.782 79.5291 102.091 78.7899C102.399 77.9891 102.893 77.3114 103.449 76.757C104.004 76.2026 104.745 75.7098 105.485 75.4018C106.288 75.0937 107.09 74.9089 108.016 74.9089C108.88 74.9089 109.744 75.0937 110.547 75.4018C111.349 75.7098 112.028 76.2026 112.645 76.757C113.263 77.3114 113.695 78.0507 114.065 78.7899C114.374 79.5907 114.559 80.3916 114.559 81.3156C114.559 82.2397 114.374 83.0405 114.065 83.8413C113.756 84.6422 113.263 85.3198 112.645 85.8742C112.028 86.4903 111.349 86.9215 110.547 87.2911C109.744 87.5991 108.942 87.7839 108.016 87.7839C107.09 87.7839 106.288 87.5991 105.485 87.2911C104.992 87.1063 104.56 86.7983 104.127 86.4903V90.3096ZM104.127 81.1308V81.8085C104.189 82.1781 104.251 82.5477 104.374 82.8557C104.56 83.3485 104.868 83.7181 105.238 84.0878C105.609 84.4574 105.979 84.7038 106.473 84.9502C106.967 85.135 107.461 85.2582 108.016 85.2582C108.572 85.2582 109.065 85.135 109.559 84.9502C110.053 84.7654 110.485 84.4574 110.794 84.0878C111.164 83.7181 111.411 83.3485 111.658 82.8557C111.843 82.3629 111.966 81.8701 111.966 81.3156C111.966 80.7612 111.843 80.2684 111.658 79.7756C111.473 79.2827 111.164 78.9131 110.794 78.5435C110.423 78.1739 109.991 77.9275 109.559 77.6811C109.065 77.4962 108.572 77.373 108.016 77.373C107.461 77.373 106.967 77.4962 106.473 77.6811C105.979 77.8659 105.609 78.1739 105.238 78.5435C104.868 78.9131 104.621 79.2827 104.374 79.7756C104.251 80.2068 104.127 80.638 104.127 81.1308ZM93.9431 82.5477H93.5727H93.511H91.3507V87.7223H88.82V86.4287V74.7857H91.3507V79.9604H93.9431C94.4369 79.9604 94.8689 79.8372 95.301 79.6524C95.7948 79.4675 96.1651 79.1595 96.5355 78.7899C96.9058 78.4203 97.1527 78.0507 97.3996 77.5579C97.5848 77.065 97.7082 76.5722 97.7082 76.0178V74.7241H100.301V76.0178C100.301 77.1266 100.054 78.1123 99.6216 78.9747C99.1279 79.8372 98.5106 80.5764 97.7082 81.1924C98.5106 81.8085 99.1279 82.5477 99.6216 83.4101C100.115 84.3342 100.301 85.2582 100.301 86.3671V87.6607H97.7082V86.3671C97.7082 85.8126 97.5848 85.3198 97.3996 84.827C97.2144 84.3342 96.9058 83.9645 96.5355 83.5949C96.1651 83.2253 95.7948 82.9789 95.301 82.7325C94.8689 82.6709 94.4369 82.6093 93.9431 82.5477ZM64.9948 77.373H59.9952V83.1021V83.1637C59.9952 85.6894 57.8966 87.7223 55.3659 87.7223V85.135C56.477 85.135 57.4028 84.211 57.4028 83.1021H57.4645V74.8473H59.6248H59.9952H64.9948H65.7355H67.5255V87.7839H64.9948V77.373ZM75.5495 84.0261L73.204 87.6607H70.2413L72.6485 83.9029C70.4882 83.4717 68.8834 81.6236 68.8834 79.3443C68.8834 76.8802 70.7968 74.9089 73.204 74.7241H73.5126H78.0184H79.3146H80.5491V87.6607H78.0184V84.0261H75.5495ZM73.5126 81.5004H78.0184V77.373H73.5126C72.4016 77.373 71.4758 78.2971 71.4758 79.4059C71.414 80.5764 72.3399 81.5004 73.5126 81.5004ZM41.6633 81.3156C41.6633 80.4532 41.8485 79.5907 42.1571 78.7899C42.4657 77.9891 42.9595 77.3114 43.515 76.757C44.0705 76.2026 44.8112 75.7098 45.5519 75.4018C46.3543 75.0937 47.1567 74.9089 48.0826 74.9089C48.9467 74.9089 49.8108 75.0937 50.6132 75.4018C51.4156 75.7098 52.0946 76.2026 52.7118 76.757C53.3291 77.3114 53.7611 78.0507 54.1315 78.7899C54.4401 79.5907 54.6253 80.3916 54.6253 81.3156V81.3772V84.9502V86.4287C54.6253 87.3527 54.4401 88.1535 54.1315 88.9544C53.8228 89.7552 53.3291 90.4328 52.7735 90.9873C52.218 91.6033 51.4774 92.0345 50.7367 92.4041C49.9343 92.7122 49.1319 92.897 48.206 92.897H46.9098V90.3096H48.206C49.0701 90.3096 49.8108 90.0632 50.4898 89.5704C51.1687 89.0776 51.6008 88.4616 51.9094 87.6607C52.0329 87.2911 52.0946 86.8599 52.1563 86.3671C51.7242 86.6751 51.2305 86.9831 50.7367 87.1679C49.9343 87.4759 49.1319 87.6607 48.206 87.6607C47.2802 87.6607 46.4778 87.4759 45.6754 87.1679C44.8729 86.8599 44.194 86.3671 43.6385 85.751C43.083 85.135 42.5892 84.4574 42.2806 83.7181C41.7868 83.0405 41.6633 82.1781 41.6633 81.3156ZM44.194 81.3156C44.194 81.8701 44.3174 82.3629 44.5026 82.8557C44.6878 83.3485 44.9964 83.7181 45.3667 84.0878C45.7371 84.4574 46.1074 84.7038 46.6012 84.9502C47.095 85.135 47.5888 85.2582 48.1443 85.2582C48.6998 85.2582 49.1936 85.135 49.6874 84.9502C50.1812 84.7654 50.6132 84.4574 50.9218 84.0878C51.2922 83.7181 51.5391 83.3485 51.786 82.8557C51.9711 82.3629 52.0946 81.8701 52.0946 81.3156C52.0946 80.7612 51.9711 80.2684 51.786 79.7756C51.6008 79.2827 51.2922 78.9131 50.9218 78.5435C50.5515 78.1739 50.1194 77.9275 49.6874 77.6811C49.1936 77.4962 48.6998 77.373 48.1443 77.373C47.5888 77.373 47.095 77.4962 46.6012 77.6811C46.1074 77.8659 45.7371 78.1739 45.3667 78.5435C44.9964 78.9131 44.7495 79.2827 44.5026 79.7756C44.2557 80.2684 44.194 80.7612 44.194 81.3156ZM35.6762 83.1637L37.4661 84.9502L36.602 85.8126C35.9848 86.4287 35.3058 86.9215 34.5034 87.2295C33.701 87.5375 32.8986 87.7223 32.0345 87.7223C31.1703 87.7223 30.3679 87.5375 29.5655 87.2295C28.7631 86.9215 28.0842 86.4287 27.4669 85.8126C26.8497 85.1966 26.3559 84.4574 26.0473 83.6565C25.7387 82.8557 25.5535 82.0549 25.5535 81.254C25.5535 80.4532 25.7387 79.6523 26.0473 78.8515C26.3559 78.0507 26.8497 77.373 27.4669 76.6954C28.0842 76.0794 28.8249 75.5866 29.6273 75.2785C30.4297 74.9705 31.2321 74.7857 32.0345 74.7857C32.8369 74.7857 33.701 74.9705 34.4417 75.2785C35.2441 75.5866 35.923 76.0794 36.602 76.6954L37.4661 77.5579L30.3062 84.7038C31.0469 85.0734 31.7876 85.1966 32.6517 85.0734C33.4541 84.9502 34.1948 84.5806 34.812 83.9646L35.6762 83.1637ZM29.2569 78.4819C28.5162 79.2211 28.0842 80.1452 28.0842 81.254C28.0842 81.8084 28.2076 82.3629 28.5162 82.9789L33.701 77.8043C32.9603 77.4346 32.2196 77.3114 31.3555 77.4346C30.5531 77.5578 29.8741 77.8659 29.2569 78.4819ZM147.519 87.7223C146.593 87.7223 145.791 87.5375 144.988 87.2295C144.186 86.9215 143.507 86.4287 142.952 85.8742C142.334 85.3198 141.902 84.5806 141.532 83.8413C141.223 83.0405 141.038 82.2397 141.038 81.3156V74.8473H143.63V81.3156C143.63 81.8701 143.754 82.3629 143.939 82.7941C144.124 83.2869 144.433 83.6565 144.803 84.0261C145.174 84.3958 145.544 84.6422 146.038 84.8886C146.531 85.0734 147.025 85.1966 147.581 85.1966C148.136 85.1966 148.63 85.0734 149.062 84.8886C149.556 84.7038 149.926 84.3958 150.297 84.0261C150.667 83.6565 150.914 83.2869 151.161 82.7941C151.346 82.3013 151.469 81.8084 151.469 81.3156V74.8473H154.062V87.7839H151.469V86.4903C150.914 86.9215 150.358 87.2295 149.679 87.4759C148.939 87.5991 148.26 87.7223 147.519 87.7223ZM14.9371 76.6954C15.5543 76.0794 16.295 75.5866 17.0974 75.2785C17.8998 74.9705 18.7022 74.7857 19.5046 74.7857C20.307 74.7857 21.1711 74.9705 21.9118 75.2785C22.7142 75.5866 23.3932 76.0794 24.0721 76.6954L24.9363 77.5579L23.1463 79.3443L22.2204 78.4819C21.8501 78.1123 21.418 77.8043 20.9242 77.6195C20.4305 77.4346 19.9367 77.3114 19.4429 77.3114C18.9491 77.3114 18.4553 77.4346 17.9615 77.6195C17.4677 77.8043 17.0357 78.1123 16.6653 78.4819C16.295 78.8515 15.9864 79.2827 15.8012 79.7756C15.616 80.2684 15.4926 80.7612 15.4926 81.254C15.4926 81.7468 15.616 82.2397 15.8012 82.7325C15.9864 83.2253 16.295 83.6565 16.6653 84.0261C17.406 84.7654 18.3319 85.1966 19.4429 85.1966C19.9367 85.1966 20.4305 85.0734 20.9242 84.8886C21.418 84.7038 21.8501 84.3958 22.2204 84.0261L23.1463 83.1637L24.9363 84.9502L24.0721 85.8126C23.4549 86.4287 22.7142 86.9215 21.9118 87.2295C21.1094 87.5375 20.307 87.7223 19.5046 87.7223C18.7022 87.7223 17.8381 87.5375 17.0974 87.2295C16.295 86.9215 15.616 86.4287 14.9371 85.8126C14.3198 85.1966 13.8261 84.4574 13.5174 83.6565C13.2088 82.8557 13.0854 82.0549 13.0854 81.254C13.0854 80.3916 13.2088 79.5907 13.5174 78.8515C13.8261 78.0507 14.3198 77.3114 14.9371 76.6954ZM8.02405 80.022H8.1475C8.51784 79.9604 8.82645 79.8372 9.01162 79.5907C9.25852 79.3443 9.32024 79.0363 9.32024 78.7283C9.32024 78.3587 9.19679 78.0507 8.9499 77.8043C8.70301 77.5579 8.39439 77.4346 8.02405 77.4346H2.53066V80.022H8.02405ZM8.02405 85.1966C8.39439 85.1966 8.70301 85.0734 8.9499 84.827C9.19679 84.5806 9.32024 84.2726 9.32024 83.9029C9.32024 83.5333 9.19679 83.2253 8.9499 82.9789C8.70301 82.7325 8.39439 82.5477 8.02405 82.5477H2.53066V85.135H8.02405V85.1966Z" fill="#B63E97"/>
<path fill-rule="evenodd" clip-rule="evenodd" d="M97.1527 28.2141C97.1527 29.7542 96.9675 31.2942 96.6589 32.7727L94.0665 30.1854L96.412 27.8445H96.7823L97.1527 28.2141ZM76.9691 51.1304C75.8581 51.3152 74.6853 51.3768 73.5126 51.3768C73.2657 51.3768 73.0188 51.3768 72.7719 51.3768L74.994 49.1591L76.9691 51.1304ZM64.7479 49.7135C64.3158 49.5287 63.8837 49.3439 63.5134 49.1591L63.8837 48.7895L64.7479 49.7135ZM59.6866 46.8798C58.6373 46.1405 57.6497 45.2781 56.7238 44.3541L58.0817 42.9988L60.7976 45.7093L59.6866 46.8798ZM54.008 41.0275C53.2673 39.9186 52.5884 38.7482 52.0328 37.5161L52.2797 37.2697L54.9956 39.9802L54.008 41.0275ZM50.0577 29.4462C50.0577 29.0149 49.996 28.5221 49.996 28.0909L50.1811 27.9061H53.6377L54.6252 28.8917L52.0328 31.4174L50.0577 29.4462ZM61.7234 27.8445H64.501L65.8589 29.1997L63.2048 31.8487L60.489 29.0765L61.7234 27.8445ZM73.2657 27.8445H75.3026L77.0308 29.5694L74.3767 32.2183L71.6609 29.5078L73.2657 27.8445ZM84.8697 27.8445H86.1659L88.2645 29.939L85.6721 32.5263L82.9563 29.8158L84.8697 27.8445ZM91.289 32.9575L88.6966 35.5448L91.4124 38.2554L94.0048 35.668L91.289 32.9575ZM85.8573 38.3786L83.2032 41.0275L85.919 43.738L88.5731 41.0891L85.8573 38.3786ZM80.117 32.5879L77.4629 35.2368L80.1787 37.9474L82.8328 35.2984L80.117 32.5879ZM80.4256 43.7996L77.7715 46.4486L80.4874 49.1591L83.1415 46.5102L80.4256 43.7996ZM74.6854 38.009L72.0312 40.6579L74.7471 43.3684L77.4012 40.7195L74.6854 38.009ZM68.8833 32.2183L66.2292 34.8672L68.9451 37.5777L71.5992 34.9288L68.8833 32.2183ZM69.2537 43.43L66.6613 46.0173L69.3771 48.7279L71.9695 46.1405L69.2537 43.43ZM63.4517 37.6393L60.8593 40.2267L63.5751 42.9372L66.1675 40.3499L63.4517 37.6393ZM57.7114 31.9103L55.119 34.4976L57.8348 37.2081L60.4272 34.6208L57.7114 31.9103Z" fill="#05A7F2"/>
<path fill-rule="evenodd" clip-rule="evenodd" d="M96.5355 33.2039C96.2269 34.4976 95.7948 35.7913 95.301 37.0233L94.0048 35.7296L96.5355 33.2039ZM93.511 40.4115C92.7704 41.5203 91.9679 42.5676 91.1038 43.5532L88.6349 41.0891L91.4124 38.317L93.511 40.4115ZM88.388 46.1405C87.3387 47.003 86.2277 47.7422 85.0549 48.4198L83.1415 46.5102L85.919 43.738L88.388 46.1405ZM81.475 50.0215C80.6726 50.3295 79.8084 50.5759 78.9443 50.7608L80.6108 49.0975L81.475 50.0215ZM71.9695 51.3152C70.4265 51.192 68.9451 50.9456 67.5255 50.5759L69.3772 48.7279L71.9695 51.3152ZM51.6625 36.6537C51.1687 35.4832 50.7984 34.2512 50.5515 32.9575L52.0946 31.4174L55.119 34.436L52.3415 37.2081L51.6625 36.6537ZM55.6746 27.8445H59.2545L60.489 29.0765L57.7114 31.8487L54.687 28.8301L55.6746 27.8445ZM67.2168 27.8445H70.1178L71.7227 29.4462L68.9451 32.2183L65.9207 29.1997L67.2168 27.8445ZM78.7591 27.8445H80.9195L82.8946 29.8158L80.117 32.5879L77.0926 29.5694L78.7591 27.8445ZM90.3014 27.8445H91.7211L94.0665 30.1854L91.289 32.9575L88.2645 29.939L90.3014 27.8445ZM74.7471 43.3684L71.9695 46.1405L74.994 49.1591L77.7716 46.3869L74.7471 43.3684ZM80.1788 37.9474L77.4012 40.7195L80.4257 43.738L83.2032 40.9659L80.1788 37.9474ZM85.6104 32.5263L82.8329 35.2984L85.8573 38.317L88.6349 35.5448L85.6104 32.5263ZM63.5752 42.9988L60.7976 45.7709L63.8221 48.7895L66.5996 46.0173L63.5752 42.9988ZM69.0068 37.5777L66.2293 40.3499L69.2537 43.3684L72.0313 40.5963L69.0068 37.5777ZM74.4385 32.2183L71.6609 34.9904L74.6854 38.009L77.4629 35.2368L74.4385 32.2183ZM57.8349 37.2081L55.0573 39.9802L58.0818 42.9988L60.8593 40.2267L57.8349 37.2081ZM63.2048 31.8487L60.4273 34.6208L63.4517 37.6393L66.2293 34.8672L63.2048 31.8487Z" fill="#05A7F2"/>
<path fill-rule="evenodd" clip-rule="evenodd" d="M95.301 37.0233C94.8072 38.1938 94.19 39.3642 93.511 40.4115L91.4124 38.317L94.0048 35.7296L95.301 37.0233ZM91.1038 43.6148C90.3014 44.5389 89.3755 45.4013 88.388 46.2021L85.9807 43.7996L88.6349 41.1507L91.1038 43.6148ZM85.0549 48.4198C83.8821 49.0359 82.7094 49.5903 81.4132 50.0831L80.4874 49.1591L83.1415 46.5102L85.0549 48.4198ZM72.8336 51.3768C72.525 51.3768 72.2781 51.3768 71.9695 51.3152L69.3771 48.7279L71.9695 46.1405L74.994 49.1591L72.8336 51.3768ZM63.5134 49.1591C62.1555 48.543 60.8593 47.7422 59.6866 46.8798L60.7976 45.7709L63.822 48.7895L63.5134 49.1591ZM56.7238 44.3541C55.7363 43.3068 54.8104 42.198 54.008 41.0275L55.0573 39.9802L58.0817 42.9988L56.7238 44.3541ZM52.0328 37.5161C51.9094 37.2081 51.7859 36.9001 51.6625 36.6537L52.2797 37.2697L52.0328 37.5161ZM49.996 28.0909C49.996 28.0293 49.996 27.9677 49.996 27.9061H50.1811L49.996 28.0909ZM59.2545 27.8445H61.7234L60.489 29.0765L59.2545 27.8445ZM70.0561 27.8445H73.2657L71.6609 29.4462L70.0561 27.8445ZM80.9194 27.8445H84.808L82.8328 29.8158L80.9194 27.8445ZM91.721 27.8445H96.412L94.0665 30.1854L91.721 27.8445ZM88.2028 29.939L85.6104 32.5263L88.6349 35.5448L91.2272 32.9575L88.2028 29.939ZM77.0308 29.5694L74.3767 32.2183L77.4012 35.2368L80.0553 32.5879L77.0308 29.5694ZM82.8328 35.2984L80.1787 37.9474L83.2032 40.9659L85.8573 38.317L82.8328 35.2984ZM65.8589 29.1997L63.2048 31.8487L66.2292 34.8672L68.8833 32.2183L65.8589 29.1997ZM71.5992 34.9904L68.9451 37.6393L71.9695 40.6579L74.6236 38.009L71.5992 34.9904ZM77.4012 40.7195L74.7471 43.3684L77.7715 46.3869L80.4256 43.738L77.4012 40.7195ZM54.6252 28.8301L52.0328 31.4174L55.0573 34.436L57.6497 31.8487L54.6252 28.8301ZM60.4272 34.6208L57.8348 37.2081L60.8593 40.2267L63.4517 37.6393L60.4272 34.6208ZM66.2292 40.4115L63.6369 42.9988L66.6613 46.0173L69.2537 43.43L66.2292 40.4115Z" fill="#008BCC"/>
<path fill-rule="evenodd" clip-rule="evenodd" d="M94.3752 35.2369C93.3259 35.2369 92.4 34.744 91.8445 33.9432C92.0297 34.0048 92.2766 34.0048 92.5235 34.0048C95.301 34.0048 96.0417 31.2943 96.1652 28.7685C96.2886 25.9348 96.2886 24.0867 97.8317 22.0538C99.1896 20.2674 101.226 19.0353 103.634 18.7273H103.757C104.992 18.6041 106.103 19.4665 106.226 20.6986C106.411 21.9306 105.485 23.1011 104.251 23.2859C103.016 23.4707 101.844 22.5467 101.659 21.3146C101.535 20.5754 101.844 19.8977 102.338 19.4049C101.535 19.8361 101.041 20.6986 101.103 21.6226C98.4489 23.2859 97.8934 25.5036 97.8934 28.5221C97.8317 30.7398 97.5231 35.2369 94.3752 35.2369ZM91.289 33.6968C90.7335 34.6208 89.8076 35.2369 88.6349 35.2369C87.5856 35.2369 86.6597 34.6824 86.1042 33.9432C86.3511 34.0048 86.5363 34.0048 86.7832 34.0048C88.0794 34.0048 89.1904 33.1424 89.6225 32.0335C89.9311 32.7727 90.5483 33.3888 91.289 33.6968ZM85.5487 33.6968C84.9932 34.6208 84.0674 35.2369 82.8946 35.2369C81.8453 35.2369 80.9195 34.6824 80.364 33.8816C80.6108 33.9432 80.8577 33.9432 81.1046 33.9432C82.4008 33.9432 83.5119 33.0808 83.9439 31.9719C84.2525 32.7727 84.808 33.3888 85.5487 33.6968ZM79.8084 33.6968C79.2529 34.6208 78.3271 35.2369 77.1543 35.2369C76.105 35.2369 75.1792 34.6824 74.6237 33.8816C74.8706 33.9432 75.1175 34.0048 75.3644 34.0048C76.6605 34.0048 77.7716 33.1424 78.2036 32.0335C78.5123 32.7727 79.1295 33.3888 79.8084 33.6968ZM74.1299 33.6968C73.6361 34.6208 72.5868 35.2369 71.4758 35.2369C70.4265 35.2369 69.5006 34.6824 68.9451 33.8816C69.192 33.9432 69.4389 34.0048 69.7475 34.0048C71.0437 34.0048 72.1547 33.1424 72.5868 32.0335C72.8337 32.7111 73.3892 33.3272 74.1299 33.6968ZM68.3896 33.6968C67.8958 34.6208 66.8465 35.2369 65.7355 35.2369C64.6862 35.2369 63.7604 34.6824 63.2048 33.8816C63.4517 33.9432 63.7603 34.0048 64.0072 34.0048C65.3034 34.0048 66.4145 33.1424 66.8465 32.0335C67.1551 32.7111 67.6489 33.3272 68.3896 33.6968ZM62.6493 33.6968C62.1555 34.6208 61.1062 35.2369 59.9952 35.2369C58.9459 35.2369 58.0201 34.6824 57.4646 33.8816C57.7115 33.9432 58.0201 34.0048 58.3287 34.0048C59.6249 34.0048 60.7359 33.1424 61.168 32.0335C61.4149 32.7111 61.9704 33.3272 62.6493 33.6968ZM56.909 33.6352C56.4153 34.5592 55.366 35.2369 54.2549 35.2369C53.2056 35.2369 52.2181 34.6208 51.6008 33.82C51.9094 33.9432 52.2181 34.0048 52.5884 34.0048C53.8846 34.0048 54.9956 33.1424 55.4277 32.0335C55.7363 32.7111 56.2301 33.3272 56.909 33.6352Z" fill="#008BCC"/>
<path fill-rule="evenodd" clip-rule="evenodd" d="M72.9572 27.2899H66.291C65.9824 26.7971 65.7972 26.2427 65.7972 25.565C65.7972 24.2714 66.6614 23.1625 67.8341 22.7313C66.6614 22.3001 65.7972 21.1912 65.7972 19.8976C65.7972 18.6039 66.6614 17.495 67.8341 17.0638C66.6614 16.6326 65.7972 15.5238 65.7972 14.2301C65.7972 12.9364 66.6614 11.8276 67.8341 11.3964C66.6614 10.9651 65.7972 9.85629 65.7972 8.56263C65.7972 7.14577 66.9083 5.7905 68.2662 5.48249H68.3279C69.8093 5.17448 71.3524 5.05127 72.9572 5.05127V27.2899Z" fill="#008BCC"/>
<path fill-rule="evenodd" clip-rule="evenodd" d="M96.1652 26.8586C96.3504 29.5692 96.1035 34.0046 92.5235 34.0046C91.2273 34.0046 90.1163 33.1421 89.6842 32.0333C89.2522 33.2037 88.1411 34.0046 86.8449 34.0046C85.5488 34.0046 84.4377 33.1421 84.0057 32.0333C83.5736 33.2037 82.4626 34.0046 81.1664 34.0046C79.8702 34.0046 78.7592 33.1421 78.3271 32.0333C77.8951 33.2037 76.784 34.0046 75.4878 34.0046C74.1916 34.0046 73.0806 33.1421 72.6486 32.0333C72.2165 33.2037 71.1055 34.0046 69.8093 34.0046C68.5131 34.0046 67.4021 33.1421 66.97 32.0333C66.5379 33.2037 65.4269 34.0046 64.1307 34.0046C62.8345 34.0046 61.7235 33.1421 61.2914 32.0333C60.8594 33.2037 59.7484 34.0046 58.4522 34.0046C57.156 34.0046 56.0449 33.1421 55.6129 32.0333C55.1808 33.2037 54.0698 34.0046 52.7736 34.0046C51.354 34.0046 49.9961 32.8957 49.6874 31.5405V31.4789C49.3788 30.0004 49.2554 28.4603 49.2554 26.8586H96.1652Z" fill="white"/>
<path fill-rule="evenodd" clip-rule="evenodd" d="M68.1426 27.5363C67.0933 27.0435 66.3527 25.9347 66.3527 24.641C66.3527 23.2241 67.2168 22.0537 68.4513 21.6224C67.2168 21.1912 66.3527 20.0208 66.3527 18.6039C66.3527 17.187 67.2168 16.0166 68.4513 15.5854C67.2168 15.1542 66.3527 13.9837 66.3527 12.5668C66.3527 11.15 67.2168 9.97951 68.4513 9.54829C67.2168 9.11707 66.3527 7.94661 66.3527 6.52975C66.3527 4.98968 67.5254 3.57281 68.945 3.2648H69.0068C70.6116 2.95678 72.2164 2.77197 73.8829 2.77197V27.4747H68.1426V27.5363Z" fill="white"/>
<path fill-rule="evenodd" clip-rule="evenodd" d="M57.7114 50.0831C61.9703 48.9742 66.291 51.4383 67.4637 55.6889C68.5747 59.9395 66.1058 64.2517 61.8469 65.4222C57.588 66.531 53.2673 64.0669 52.0946 59.8163C50.9836 55.5657 53.5142 51.1919 57.7114 50.0831ZM85.2401 50.0831C89.499 48.9742 93.8196 51.4383 94.9924 55.6889C96.1034 59.9395 93.6345 64.2517 89.3755 65.4222C85.1166 66.531 80.796 64.0669 79.6232 59.8163C78.5122 55.5657 80.9812 51.1919 85.2401 50.0831ZM87.2769 56.7978C87.7707 56.7978 88.2028 57.229 88.2028 57.7218C88.2028 58.2146 87.7707 58.6459 87.2769 58.6459C86.7832 58.6459 86.3511 58.2146 86.3511 57.7218C86.3511 57.229 86.7832 56.7978 87.2769 56.7978ZM87.2769 55.1961C87.7707 55.1961 88.2028 55.3193 88.6349 55.5657L90.5483 53.656C89.4373 52.7936 88.0176 52.3624 86.5363 52.6088L87.2152 55.1961H87.2769ZM89.4373 56.3666C89.6842 56.7362 89.8076 57.229 89.8076 57.7218V57.7834L92.4 58.4611C92.5234 57.7834 92.4617 57.0442 92.2766 56.3666C92.0914 55.6273 91.7828 55.0113 91.3507 54.4569L89.4373 56.3666ZM89.499 58.8923C89.2521 59.3235 88.8818 59.6931 88.4497 59.9395L89.1287 62.5268C90.4866 61.9724 91.5359 60.9252 92.0914 59.5699L89.499 58.8923ZM87.4004 60.2475H87.3387C86.8449 60.2475 86.4128 60.1243 85.9808 59.8779L84.0673 61.7876C85.1784 62.65 86.598 63.0813 88.0794 62.8349L87.4004 60.2475ZM85.1784 59.0771C84.9315 58.7075 84.808 58.2146 84.808 57.7218V57.5986L82.2156 56.921C82.0922 57.5986 82.1539 58.3378 82.3391 59.0155C82.5242 59.7547 82.8329 60.3707 83.3267 60.9252L85.1784 59.0771ZM85.0549 56.5514C85.3018 56.1201 85.6721 55.7505 86.1042 55.5041L85.4252 52.9168C84.0673 53.4712 83.018 54.5185 82.4625 55.8737L85.0549 56.5514ZM59.81 56.7978C60.3038 56.7978 60.7359 57.229 60.7359 57.7218C60.7359 58.2146 60.3038 58.6459 59.81 58.6459C59.3162 58.6459 58.8842 58.2146 58.8842 57.7218C58.8842 57.229 59.2545 56.7978 59.81 56.7978ZM59.81 55.1961C60.3038 55.1961 60.7359 55.3193 61.1679 55.5657L63.0814 53.656C61.9703 52.7936 60.5507 52.3624 59.0693 52.6088L59.7483 55.1961H59.81ZM61.9086 56.3666C62.1555 56.7362 62.279 57.229 62.279 57.7218V57.7834L64.8713 58.4611C64.9948 57.7834 64.9331 57.0442 64.7479 56.3666C64.5627 55.6273 64.2541 55.0113 63.7603 54.4569L61.9086 56.3666ZM62.0321 58.8923C61.7852 59.3235 61.4148 59.6931 60.9828 59.9395L61.6617 62.5268C63.0196 61.9724 64.0689 60.9252 64.6244 59.5699L62.0321 58.8923ZM59.8717 60.2475H59.81C59.3162 60.2475 58.8842 60.1243 58.4521 59.8779L56.5387 61.7876C57.6497 62.65 59.0693 63.0813 60.5507 62.8349L59.8717 60.2475ZM57.6497 59.0771C57.4028 58.7075 57.2794 58.2146 57.2794 57.7218V57.5986L54.687 56.921C54.5635 57.5986 54.6253 58.3378 54.8104 59.0155C54.9956 59.7547 55.3042 60.3707 55.798 60.9252L57.6497 59.0771ZM57.588 56.5514C57.8349 56.1201 58.2052 55.7505 58.6373 55.5041L57.9583 52.9168C56.6004 53.4712 55.5511 54.5185 54.9956 55.8737L57.588 56.5514Z" fill="#B63E97"/>
<path fill-rule="evenodd" clip-rule="evenodd" d="M73.5126 66.2847C86.2894 66.2847 96.6589 66.5927 96.6589 66.9007C96.6589 67.2703 86.2894 67.5167 73.5126 67.5167C60.7359 67.5167 50.3663 67.2087 50.3663 66.9007C50.3663 66.5311 60.7359 66.2847 73.5126 66.2847Z" fill="#CCCCCC"/>
<path fill-rule="evenodd" clip-rule="evenodd" d="M29.5038 70.4736C30.3679 70.4736 31.0469 71.1513 31.0469 72.0137C31.0469 72.8761 30.3679 73.5538 29.5038 73.5538C28.6397 73.5538 27.9607 72.8761 27.9607 72.0137C27.9607 71.1513 28.6397 70.4736 29.5038 70.4736ZM34.6268 70.4736C35.491 70.4736 36.1699 71.1513 36.1699 72.0137C36.1699 72.8761 35.491 73.5538 34.6268 73.5538C33.7627 73.5538 33.0837 72.8761 33.0837 72.0137C33.0837 71.1513 33.7627 70.4736 34.6268 70.4736Z" fill="#008BCC"/>
<path fill-rule="evenodd" clip-rule="evenodd" d="M95.3627 16.5095C95.3627 16.5095 96.2886 13.1213 96.0417 11.5197C95.8565 10.1028 95.6096 8.87073 94.622 7.76188C93.3875 6.40661 91.2889 5.29776 89.6224 4.62013C86.2276 3.20326 81.6601 2.52563 77.3394 4.18891C74.7471 5.17456 72.7719 9.36355 72.5867 10.7188C71.7843 8.99393 69.4388 9.48676 68.7599 11.5197C67.2785 16.2631 71.414 14.7846 71.414 14.7846C71.1671 20.9449 81.2897 23.0394 86.7214 23.2858C89.6224 23.409 93.2641 22.5466 94.4986 20.3289C94.4986 20.3289 97.3378 22.9778 98.4489 19.2816C99.4982 15.5854 95.8565 16.0783 95.3627 16.5095ZM93.7579 27.5364C93.9431 28.0292 95.5479 29.6309 94.4368 30.4933C93.6344 31.171 93.0789 30.0621 92.7086 29.4461C92.7086 30.4317 93.2641 32.3414 92.0296 32.5262C90.9186 32.711 90.9186 30.5549 90.6717 29.7541C90.4248 30.7397 90.1779 33.0191 89.1904 32.9575C87.709 32.8342 88.3879 30.4317 88.4497 29.5693C87.7707 30.9246 86.6597 31.9102 85.919 31.1094C85.3018 30.3701 86.9683 27.906 86.8449 27.5364C86.7214 27.1052 84.5611 28.3988 84.3142 26.9204C84.129 25.8115 85.919 25.8115 86.6597 25.2571C91.1038 22.3002 94.0048 24.7643 93.7579 27.5364ZM72.4016 26.8588C72.1547 27.3516 70.2413 28.7069 71.2288 29.7541C71.9695 30.5549 72.6485 29.5693 73.1423 28.9533C73.0188 29.9389 72.1547 31.787 73.3274 32.1566C74.4384 32.4646 74.7471 30.3085 75.0557 29.5693C75.1174 30.5549 75.0557 32.9575 76.0433 33.0807C77.5863 33.2039 77.216 30.6165 77.2777 29.7541C77.7715 31.171 78.7591 32.403 79.6232 31.6638C80.3639 31.0478 79.0677 28.2756 79.2529 27.9676C79.438 27.5364 81.4132 29.1997 81.907 27.7212C82.2773 26.674 80.4873 26.3659 79.8084 25.6883C75.8581 21.9305 72.5867 24.025 72.4016 26.8588Z" fill="#F0CEAF"/>
<path fill-rule="evenodd" clip-rule="evenodd" d="M79.6232 9.54845C81.228 9.67166 82.4007 11.0885 82.2156 12.6902C82.0921 14.2919 80.6725 15.4623 79.0677 15.2775C77.4629 15.1543 76.2901 13.7374 76.4753 12.1358C76.5987 10.5957 78.0184 9.42525 79.6232 9.54845ZM87.4621 19.4665C87.1535 19.8361 86.7831 20.1441 86.4128 20.3906C85.24 21.1298 83.8204 21.4994 82.339 21.1914C80.8577 20.8834 79.6849 20.0209 78.8825 18.9121C78.6356 18.5425 78.3887 18.1113 78.2653 17.68L79.0677 17.4336C79.1911 17.8032 79.3763 18.1729 79.5615 18.4809C80.1787 19.4665 81.228 20.1441 82.4625 20.3906C83.6969 20.637 84.9314 20.3906 85.8573 19.7129C86.1659 19.4665 86.4745 19.2201 86.7214 18.9121L87.4621 19.4665ZM89.0669 11.5197C90.6717 11.643 91.8444 13.0598 91.6593 14.6615C91.5358 16.2632 90.1162 17.4336 88.5114 17.2488C86.9066 17.1256 85.7338 15.7087 85.919 14.1071C86.1042 12.5054 87.4621 11.3349 89.0669 11.5197Z" fill="white"/>
<path fill-rule="evenodd" clip-rule="evenodd" d="M79.4381 10.7805C80.4256 10.8421 81.1663 11.7662 81.0429 12.7518C80.9812 13.7375 80.0553 14.4767 79.0677 14.3535C78.0802 14.2919 77.3395 13.3678 77.4629 12.3822C77.5246 12.0126 77.6481 11.7046 77.895 11.3965C77.895 11.4581 77.8333 11.5198 77.8333 11.5814C77.7715 12.0742 78.1419 12.5054 78.6357 12.567C79.1295 12.6286 79.5615 12.259 79.6232 11.7662C79.685 11.2733 79.3146 10.8421 78.8826 10.7805C79.0677 10.7805 79.2529 10.7805 79.4381 10.7805ZM88.8818 12.7518C89.8693 12.8134 90.61 13.7375 90.4866 14.7231C90.4249 15.7087 89.499 16.448 88.5114 16.3248C87.5238 16.2632 86.7832 15.3391 86.9066 14.3535C86.9683 13.9839 87.0918 13.6759 87.3387 13.3678C87.3387 13.4294 87.2769 13.491 87.2769 13.5526C87.2152 14.0455 87.5856 14.4767 88.0794 14.5383C88.5731 14.5999 89.0052 14.2303 89.0669 13.7375C89.1287 13.2446 88.7583 12.8134 88.3263 12.7518C88.5114 12.6902 88.6966 12.6902 88.8818 12.7518Z" fill="#008BCC"/>
<path fill-rule="evenodd" clip-rule="evenodd" d="M95.0542 6.16027C96.1652 6.71469 97.4614 7.39232 98.3255 8.06996C99.8686 9.36362 99.3748 9.91804 98.0169 10.7189C96.5355 11.5813 93.6345 13.0598 93.4493 11.3965C93.2642 10.0412 93.5111 8.62438 93.8814 7.20752C92.2149 6.8379 90.6101 6.34508 89.067 5.66744C87.8942 5.17462 87.8325 4.25058 88.8201 3.20333C89.9311 2.09448 90.9187 1.17043 92.2766 0.307994C93.3876 -0.369638 94.19 0.0615822 94.4986 1.10883C94.9307 2.6489 95.1159 4.31218 95.0542 6.16027Z" fill="#B63E97"/>
</g>
<defs>
<clipPath id="clip0_8793_3416">
<rect width="154" height="103" fill="white"/>
</clipPath>
</defs>
</svg>
